<svg id="visual" viewBox="0 0 960 540" width="960" height="540" xmlns="http://www.w3.org/2000/svg" xmlns:xlink="http://www.w3.org/1999/xlink" version="1.1"><rect x="0" y="0" width="960" height="540" fill="#001220"></rect><defs><linearGradient id="grad1_0" x1="43.8%" y1="100%" x2="100%" y2="0%"><stop offset="14.444444444444446%" stop-color="#001220" stop-opacity="1"></stop><stop offset="85.55555555555554%" stop-color="#001220" stop-opacity="1"></stop></linearGradient></defs><defs><linearGradient id="grad2_0" x1="0%" y1="100%" x2="56.3%" y2="0%"><stop offset="14.444444444444446%" stop-color="#001220" stop-opacity="1"></stop><stop offset="85.55555555555554%" stop-color="#001220" stop-opacity="1"></stop></linearGradient></defs><g transform="translate(960, 540)"><path d="M-243 0C-243.9 -28.6 -244.7 -57.1 -228.3 -74.2C-211.8 -91.2 -177.9 -96.7 -164.2 -119.3C-150.6 -142 -157 -181.9 -142.8 -196.6C-128.6 -211.3 -93.7 -200.9 -66.4 -204.5C-39.2 -208 -19.6 -225.5 0 -243L0 0Z" fill="#3476e9"></path></g><g transform="translate(0, 0)"><path d="M243 0C245.8 29.3 248.7 58.7 231.1 75.1C213.5 91.5 175.5 95.1 160.2 116.4C144.8 137.7 152.1 176.8 138.7 190.9C125.3 205.1 91.2 194.3 64.6 198.8C38 203.3 19 223.1 0 243L0 0Z" fill="#3476e9"></path></g></svg>