<svg id="visual" viewBox="0 0 960 540" width="960" height="540" xmlns="http://www.w3.org/2000/svg" xmlns:xlink="http://www.w3.org/1999/xlink" version="1.1"><rect x="0" y="0" width="960" height="540" fill="rgba(0, 0, 0, 0)"></rect><defs><linearGradient id="grad1_0" x1="43.8%" y1="100%" x2="100%" y2="0%"><stop offset="14.444444444444446%" stop-color="#001220" stop-opacity="1"></stop><stop offset="85.55555555555554%" stop-color="#001220" stop-opacity="1"></stop></linearGradient></defs><defs><linearGradient id="grad2_0" x1="0%" y1="100%" x2="56.3%" y2="0%"><stop offset="14.444444444444446%" stop-color="#001220" stop-opacity="1"></stop><stop offset="85.55555555555554%" stop-color="#001220" stop-opacity="1"></stop></linearGradient></defs><g transform="translate(960, 540)"><path d="M-324 0C-302 -22.5 -280 -44.9 -277.2 -74.3C-274.4 -103.6 -290.7 -139.8 -280.6 -162C-270.4 -184.2 -233.8 -192.2 -210.7 -210.7C-187.7 -229.2 -178.2 -258 -158.5 -274.5C-138.8 -291 -108.9 -295.2 -80.8 -301.4C-52.6 -307.6 -26.3 -315.8 0 -324L0 0Z" fill="#3476e9"></path></g><g transform="translate(0, 0)"><path d="M324 0C321.6 27.6 319.1 55.2 313 83.9C306.8 112.6 296.9 142.4 273.7 158C250.4 173.6 213.9 175 194.5 194.5C175 214 172.7 251.6 155.5 269.3C138.3 287.1 106.3 284.9 77.9 290.7C49.5 296.5 24.8 310.3 0 324L0 0Z" fill="#3476e9"></path></g></svg>